<svg xmlns="http://www.w3.org/2000/svg" viewBox="0 0 261.1 240.83"><defs><style>.cls-1{fill:none;}.cls-1,.cls-2{stroke:#000;stroke-miterlimit:10;stroke-width:6px;}.cls-2{fill:#6d5839;}</style></defs><title>Risorsa 1logoParrocchia</title><g id="Livello_2" data-name="Livello 2"><g id="Livello_4" data-name="Livello 4"><path class="cls-1" d="M46.84,5.48V35.25a5,5,0,0,1-5,5H8a5,5,0,0,1-4.95-5V5.48A2.48,2.48,0,0,1,5.48,3H9.84a2.48,2.48,0,0,1,2.47,2.48V15h8V5.48A2.49,2.49,0,0,1,22.74,3H27.1a2.49,2.49,0,0,1,2.48,2.48V15h8V5.48A2.49,2.49,0,0,1,40,3h4.33A2.47,2.47,0,0,1,46.84,5.48Z"/><rect class="cls-1" x="3" y="73.07" width="43.85" height="164.76" rx="4.95"/><path class="cls-1" d="M258.1,115.18V232.87a5,5,0,0,1-5,5H65.09a5,5,0,0,1-5-5V115.18a7.42,7.42,0,0,1,3.9-6.54l95.07-51.39,95.1,51.39A7.43,7.43,0,0,1,258.1,115.18Z"/><path class="cls-1" d="M25.71,63.89a1.66,1.66,0,0,1,0,3.3,1.66,1.66,0,0,1,0-3.3Z"/><path class="cls-1" d="M35.67,63.89H15.46c-1,0-3-.61-1.09-2.71C18.6,56.56,21.43,47.55,22,44.4c.72-4.18,3.59-4.2,3.59-4.2s2.85,0,3.57,4.2c.54,3.15,3.37,12.16,7.6,16.78C38.67,63.28,36.63,63.89,35.67,63.89Z"/><path class="cls-1" d="M185.88,196v41.61H133.7V196a26.09,26.09,0,1,1,52.18,0Z"/><line class="cls-2" x1="159" y1="57.61" x2="159" y2="21.61"/><line class="cls-2" x1="159" y1="33.48" x2="171" y2="33.48"/><line class="cls-2" x1="147" y1="33.48" x2="159" y2="33.48"/></g></g></svg>